<?xml version="1.0" encoding="iso-8859-1"?>
<!-- Uploaded to: SVG Repo, www.svgrepo.com, Generator: SVG Repo Mixer Tools -->
<svg height="800px" width="800px" version="1.1" id="Layer_1" xmlns="http://www.w3.org/2000/svg" xmlns:xlink="http://www.w3.org/1999/xlink" 
	 viewBox="0 0 512 512" xml:space="preserve">
<path style="fill:#FFCE3E;" d="M256,403.064c-81.091,0-147.064-65.973-147.064-147.064S174.909,108.936,256,108.936
	S403.064,174.909,403.064,256S337.091,403.064,256,403.064z"/>
<path style="fill:#F59D00;" d="M256,108.936v294.128c81.091,0,147.064-65.973,147.064-147.064S337.091,108.936,256,108.936z"/>
<g>
	<path style="fill:#FEE856;" d="M256,83.708c-9.024,0-16.34-7.316-16.34-16.34V16.34C239.66,7.316,246.976,0,256,0
		c9.024,0,16.34,7.316,16.34,16.34v51.027C272.34,76.391,265.024,83.708,256,83.708z"/>
	<path style="fill:#FEE856;" d="M256,512c-9.024,0-16.34-7.316-16.34-16.34v-51.027c0-9.024,7.316-16.34,16.34-16.34
		c9.024,0,16.34,7.316,16.34,16.34v51.027C272.34,504.684,265.024,512,256,512z"/>
	<path style="fill:#FEE856;" d="M111.062,134.171L74.981,98.089c-6.381-6.381-6.381-16.727,0-23.109s16.728-6.38,23.109,0
		l36.081,36.082c6.381,6.381,6.381,16.727,0,23.109C127.789,140.552,117.443,140.553,111.062,134.171z"/>
	<path style="fill:#FEE856;" d="M67.367,272.34H16.34C7.316,272.34,0,265.024,0,256c0-9.024,7.316-16.34,16.34-16.34h51.027
		c9.024,0,16.34,7.316,16.34,16.34C83.708,265.024,76.391,272.34,67.367,272.34z"/>
	<path style="fill:#FEE856;" d="M74.981,437.019c-6.381-6.38-6.381-16.727,0-23.109l36.081-36.082c6.38-6.381,16.727-6.381,23.109,0
		c6.381,6.38,6.381,16.727,0,23.109l-36.081,36.082C91.709,443.4,81.362,443.401,74.981,437.019z"/>
</g>
<g>
	<path style="fill:#FFCE3E;" d="M256,0v83.708c9.024,0,16.34-7.316,16.34-16.34V16.34C272.34,7.316,265.024,0,256,0z"/>
	<path style="fill:#FFCE3E;" d="M256,428.292V512c9.024,0,16.34-7.316,16.34-16.34v-51.027
		C272.34,435.608,265.024,428.292,256,428.292z"/>
	<path style="fill:#FFCE3E;" d="M413.911,437.019l-36.081-36.082c-6.381-6.381-6.381-16.727,0-23.109
		c6.38-6.38,16.727-6.381,23.109,0l36.081,36.082c6.382,6.382,6.382,16.727,0,23.109C430.639,443.4,420.292,443.401,413.911,437.019
		z"/>
	<path style="fill:#FFCE3E;" d="M495.66,272.34h-51.027c-9.024,0-16.34-7.316-16.34-16.34c0-9.024,7.316-16.34,16.34-16.34h51.027
		c9.024,0,16.34,7.316,16.34,16.34C512,265.024,504.684,272.34,495.66,272.34z"/>
	<path style="fill:#FFCE3E;" d="M377.83,134.171c-6.381-6.38-6.381-16.727,0-23.109l36.081-36.082c6.38-6.381,16.727-6.381,23.109,0
		c6.382,6.38,6.382,16.727,0,23.109l-36.081,36.082C394.558,140.552,384.211,140.553,377.83,134.171z"/>
</g>
</svg>